# xmcd
#
# Track frame offsets:
#	150
#	17955
#	32932
#	47417
#	66667
#	84132
#	101722
#	119930
#	147840
#	163605
#	176620
#	191777
#	211787
#	230812
#	246235
#
# Disc length: 3507 seconds
#
# Revision: 1
# Processed by: cddbd v1.4PL0 Copyright (c) Steve Scherf et al.
# Submitted via: audiograbber 1.82.02
#
DISCID=de0db10f
DTITLE=James Marshall - Wandering
DYEAR=2000
DGENRE=Country
TTITLE0=Wandering
TTITLE1=We're Gonna Have A Good Old Time
TTITLE2=Save One Dance
TTITLE3=I Tried
TTITLE4=You Didn't Die For Angels
TTITLE5=My Sister Rose
TTITLE6=You Be You
TTITLE7=My Blues
TTITLE8=Never Let Me Go
TTITLE9=Everytime
TTITLE10=Sweet Creation
TTITLE11=Love Shines On
TTITLE12=Moments Made By Love
TTITLE13=Creacion Dulce
TTITLE14=Mi Hermana Rosa
EXTD=
EXTT0=
EXTT1=
EXTT2=
EXTT3=
EXTT4=
EXTT5=
EXTT6=
EXTT7=
EXTT8=
EXTT9=
EXTT10=
EXTT11=
EXTT12=
EXTT13=
EXTT14=
PLAYORDER=
